<svg width="241" height="113" viewBox="0 0 241 113" fill="none" xmlns="http://www.w3.org/2000/svg">
<path d="M73.5224 49.8692H68.7799V71.571H59.9686V49.8692H56.7773V42.4647H59.9686V41.63C59.9686 38.0489 60.9791 35.3295 63.0091 33.4716C65.0302 31.6138 68.0087 30.6804 71.918 30.6804C72.5651 30.6804 73.0526 30.6983 73.3629 30.7342V38.3003C71.6786 38.1926 70.4996 38.4349 69.8082 39.0272C69.1168 39.6196 68.7799 40.6787 68.7799 42.2044V42.4647H73.5224V49.8692Z" fill="white"/>
<path d="M83.1227 70.1618C80.88 68.9502 79.1071 67.209 77.8218 64.9473C76.5275 62.6856 75.8893 60.0469 75.8893 57.0223C75.8893 53.9977 76.5364 51.3949 77.8483 49.1242C79.1514 46.8445 80.9421 45.1034 83.2025 43.8828C85.463 42.6711 88.0071 42.0608 90.826 42.0608C93.6449 42.0608 96.1802 42.6711 98.4495 43.8828C100.719 45.1034 102.501 46.8445 103.804 49.1242C105.107 51.4039 105.763 54.0336 105.763 57.0223C105.763 60.011 105.098 62.6497 103.777 64.9294C102.456 67.209 100.648 68.9502 98.3697 70.1708C96.0827 71.3914 93.5297 72.0017 90.7196 72.0017C87.9096 72.0017 85.3743 71.3914 83.1227 70.1708V70.1618ZM95.0278 62.3894C96.2068 61.1329 96.8096 59.3469 96.8096 57.0133C96.8096 54.6798 96.2334 52.8938 95.081 51.6372C93.9286 50.3807 92.5191 49.7614 90.826 49.7614C89.1329 49.7614 87.688 50.3807 86.5533 51.6103C85.4187 52.8399 84.8513 54.6439 84.8513 57.0043C84.8513 59.3648 85.4098 61.1239 86.5267 62.3804C87.6436 63.628 89.0442 64.2562 90.7285 64.2562C92.4128 64.2562 93.84 63.628 95.0278 62.3804V62.3894Z" fill="white"/>
<path d="M134.493 45.4624C136.505 47.6702 137.507 50.7038 137.507 54.5631V71.5709H128.748V55.7658C128.748 53.8182 128.252 52.3104 127.259 51.2244C126.258 50.1474 124.928 49.6089 123.244 49.6089C121.559 49.6089 120.221 50.1474 119.219 51.2244C118.226 52.3014 117.73 53.8182 117.73 55.7658V71.5709H108.919V42.4647H117.73V46.324C118.625 45.0405 119.822 44.0174 121.338 43.2724C122.845 42.5275 124.547 42.1506 126.444 42.1506C129.803 42.1506 132.489 43.2545 134.502 45.4624H134.493Z" fill="white"/>
<path d="M159.446 64.0049V71.5709H154.961C151.77 71.5709 149.279 70.7811 147.488 69.2015C145.697 67.6219 144.811 65.0371 144.811 61.456V49.8781H141.31V42.4737H144.811V35.3744H153.622V42.4737H159.393V49.8781H153.622V61.5637C153.622 62.4343 153.826 63.0625 154.243 63.4395C154.651 63.8254 155.342 64.0139 156.299 64.0139H159.446V64.0049Z" fill="white"/>
<path d="M164.419 38.0579C163.435 37.1335 162.948 35.9936 162.948 34.6384C162.948 33.2832 163.435 32.0895 164.419 31.174C165.394 30.2496 166.662 29.7918 168.204 29.7918C169.747 29.7918 170.961 30.2496 171.936 31.174C172.912 32.0984 173.408 33.2562 173.408 34.6384C173.408 36.0206 172.92 37.1335 171.936 38.0579C170.952 38.9823 169.711 39.4401 168.204 39.4401C166.698 39.4401 165.394 38.9823 164.419 38.0579ZM172.584 42.4647V71.5709H163.772V42.4647H172.584Z" fill="white"/>
<path d="M193.398 49.8692H188.655V71.571H179.844V49.8692H176.652V42.4647H179.844V41.63C179.844 38.0489 180.854 35.3295 182.884 33.4716C184.905 31.6138 187.884 30.6804 191.793 30.6804C192.44 30.6804 192.928 30.6983 193.238 30.7342V38.3003C191.554 38.1926 190.375 38.4349 189.683 39.0272C188.992 39.6196 188.655 40.6787 188.655 42.2044V42.4647H193.398V49.8692Z" fill="white"/>
<path d="M230.54 42.4647L212.509 85.3926H203.033L209.628 70.5747L197.936 42.4647H207.776L214.424 60.6662L221.019 42.4647H230.549H230.54Z" fill="white"/>
<path d="M232.011 70.6016C231.036 69.6772 230.54 68.5463 230.54 67.1911C230.54 65.8358 231.027 64.6332 232.011 63.6998C232.995 62.7664 234.254 62.2907 235.797 62.2907C237.339 62.2907 238.553 62.7574 239.528 63.6998C240.504 64.6422 241 65.8089 241 67.1911C241 68.5732 240.512 69.6862 239.528 70.6016C238.553 71.5261 237.303 71.9838 235.797 71.9838C234.29 71.9838 232.986 71.5261 232.011 70.6016Z" fill="white"/>
<path d="M0 109.891V69.216L19.307 69.2608V124L0 109.891Z" fill="white"/>
<path d="M2.56189 71.8098L16.7451 71.8457V118.929L2.56189 108.563V71.8098Z" fill="white"/>
<path d="M19.3247 49.6054H42.7094V68.5249L19.307 69.216L19.3247 49.6054Z" fill="white"/>
<path d="M19.3158 66.5594L19.3247 52.1992H40.1474V65.9939L19.3158 66.5594Z" fill="white"/>
<path d="M0 49.5426V40.5316C0 34.1233 1.43605 28.0023 4.25498 22.3301C11.0984 8.55327 24.803 0 40.0234 0H42.7093V19.2336H40.0234C37.0449 19.2336 34.1639 19.8529 31.4779 21.0735C24.0849 24.4212 19.3069 32.0142 19.3069 40.4239V49.6054L0 49.5426Z" fill="white"/>
<path d="M40.1475 2.59381V16.6398H40.0234C36.6105 16.6398 33.3572 17.3758 30.4319 18.7041C22.0284 22.5096 16.7451 31.1077 16.7451 40.4149V46.9936L2.55298 46.9488V40.5226C2.55298 34.3926 3.98903 28.6126 6.53315 23.4878C12.7029 11.0932 25.3791 2.59381 40.0234 2.59381H40.1475Z" fill="white"/>
</svg>
